# Blender v2.83.5 OBJ File: ''
# www.blender.org
mtllib HexagonBeveled.mtl
o Hexagon_Beveled_Cube.001
v 0.000000 0.000000 -1.000000
v -0.866025 0.000000 -0.500000
v -0.866025 0.000000 0.500000
v 0.000000 0.000000 1.000000
v 0.866025 0.000000 0.500000
v 0.866025 0.000000 -0.500000
v -0.000000 0.200000 -0.907949
v 0.000000 0.120282 -1.000000
v -0.866025 0.120282 -0.500000
v -0.786307 0.200000 -0.453975
v -0.866025 0.120282 0.500000
v -0.786307 0.200000 0.453975
v 0.000000 0.120282 1.000000
v 0.000000 0.200000 0.907949
v 0.866025 0.120282 0.500000
v 0.786307 0.200000 0.453975
v 0.866025 0.120282 -0.500000
v 0.786307 0.200000 -0.453975
vt 0.000000 0.000000
vt 0.000000 0.000000
vt 0.000000 0.000000
vt 0.000000 0.000000
vt 0.000000 0.000000
vt 0.000000 0.000000
vt 0.000000 0.000000
vt 0.000000 0.000000
vt 0.000000 0.000000
vt 0.000000 0.000000
vt 0.000000 0.000000
vt 0.000000 0.000000
vt 0.000000 0.000000
vt 0.000000 0.000000
vt 0.000000 0.000000
vt 0.000000 0.000000
vt 0.000000 0.000000
vt 0.000000 0.000000
vn 0.0000 -1.0000 0.0000
vn 0.5000 0.0000 -0.8660
vn 0.5000 0.0000 0.8660
vn 0.0000 1.0000 0.0000
vn -1.0000 0.0000 0.0000
vn 1.0000 0.0000 0.0000
vn -0.5000 0.0000 0.8660
vn -0.3536 0.7071 -0.6124
vn -0.7071 0.7071 0.0000
vn -0.3536 0.7071 0.6124
vn 0.3536 0.7071 0.6124
vn 0.7071 0.7071 0.0000
vn 0.3536 0.7071 -0.6124
vn -0.5000 0.0000 -0.8660
usemtl Material.001
s off
f 2/1/1 1/2/1 6/3/1 5/4/1 4/5/1 3/6/1
f 6/3/2 1/2/2 8/7/2 17/8/2
f 4/5/3 5/4/3 15/9/3 13/10/3
f 10/11/4 12/12/4 14/13/4 16/14/4 18/15/4 7/16/4
f 2/1/5 3/6/5 11/17/5 9/18/5
f 5/4/6 6/3/6 17/8/6 15/9/6
f 3/6/7 4/5/7 13/10/7 11/17/7
f 10/11/8 7/16/8 8/7/8 9/18/8
f 12/12/9 10/11/9 9/18/9 11/17/9
f 14/13/10 12/12/10 11/17/10 13/10/10
f 16/14/11 14/13/11 13/10/11 15/9/11
f 18/15/12 16/14/12 15/9/12 17/8/12
f 7/16/13 18/15/13 17/8/13 8/7/13
f 1/2/14 2/1/14 9/18/14 8/7/14
