# Blender v2.83.5 OBJ File: ''
# www.blender.org
mtllib HexagonSimple.mtl
o Hexagon_Simple_Cube
v 0.000000 0.000000 -1.000000
v -0.866025 0.000000 -0.500000
v -0.866025 0.000000 0.500000
v 0.000000 0.000000 1.000000
v 0.866025 0.000000 0.500000
v 0.866025 0.000000 -0.500000
v 0.000000 0.200000 -1.000000
v -0.866025 0.200000 -0.500000
v -0.866025 0.200000 0.500000
v 0.000000 0.200000 1.000000
v 0.866025 0.200000 0.500000
v 0.866025 0.200000 -0.500000
vt 0.000000 0.000000
vt 0.000000 0.000000
vt 0.000000 0.000000
vt 0.000000 0.000000
vt 0.000000 0.000000
vt 0.000000 0.000000
vt 0.000000 0.000000
vt 0.000000 0.000000
vt 0.000000 0.000000
vt 0.000000 0.000000
vt 0.000000 0.000000
vt 0.000000 0.000000
vn 0.0000 -1.0000 0.0000
vn 0.0000 1.0000 0.0000
vn 1.0000 0.0000 0.0000
vn -0.5000 0.0000 0.8660
vn -0.5000 0.0000 -0.8660
vn 0.5000 0.0000 -0.8660
vn 0.5000 0.0000 0.8660
vn -1.0000 0.0000 0.0000
usemtl Material
s off
f 2/1/1 1/2/1 6/3/1 5/4/1 4/5/1 3/6/1
f 8/7/2 9/8/2 10/9/2 11/10/2 12/11/2 7/12/2
f 5/4/3 6/3/3 12/11/3 11/10/3
f 3/6/4 4/5/4 10/9/4 9/8/4
f 1/2/5 2/1/5 8/7/5 7/12/5
f 6/3/6 1/2/6 7/12/6 12/11/6
f 4/5/7 5/4/7 11/10/7 10/9/7
f 2/1/8 3/6/8 9/8/8 8/7/8
